# xmcd
#
# Track frame offsets: 
#        150
#        20616
#        41760
#        61872
#        90190
#        112221
#        126772
#        145700
#        167071
#        187902
#        206925
#
# Disc length: 2994 seconds
#
# Revision: 0
# Processed by: cddbd v1.5.2PL0 Copyright (c) Steve Scherf et al.
# Submitted via: ExactAudioCopy v0.95b3
#
DISCID=960bb00b
DTITLE=Various Artist - Kammgarn International Bluesfestival 2008
DYEAR=1900
DGENRE=
TTITLE0=Michael Hill/They Will Know
TTITLE1=Eric Sardinas/Ride
TTITLE2=Wild T and The Spirit/Life Goes On
TTITLE3=Michael Burks/Emty Promises
TTITLE4=Steve Fister Band/Zig Zag Talk
TTITLE5=The Joe Turner and Memphis Blues Caravan/Someday
TTITLE6=John Lee Hooker Jr./Extramartital Affair
TTITLE7=Tom Prinicipato Band/Lock And Key
TTITLE8=Bernard Allison/Chills and Thrills
TTITLE9=Big Daddy Wilson and Doc Fozz/Ain´t No Slave
TTITLE10=Michael Hill/Black Gold
EXTD=
EXTT0=
EXTT1=
EXTT2=
EXTT3=
EXTT4=
EXTT5=
EXTT6=
EXTT7=
EXTT8=
EXTT9=
EXTT10=
PLAYORDER=
